<?xml version="1.0" standalone="no"?><!DOCTYPE svg PUBLIC "-//W3C//DTD SVG 1.1//EN" "http://www.w3.org/Graphics/SVG/1.1/DTD/svg11.dtd"><svg t="1712218693416" class="icon" viewBox="0 0 1024 1024" version="1.1" xmlns="http://www.w3.org/2000/svg" p-id="5453" xmlns:xlink="http://www.w3.org/1999/xlink" width="200" height="200"><path d="M231.885549 1024c-82.629307 0-149.853659-67.224351-149.853658-149.853659V150.961577c0-82.629307 67.224351-149.853659 149.853658-149.853659h561.413745c82.629307 0 149.853659 67.224351 149.853658 149.853659V781.736585h-99.902439V150.961577c0-27.543102-22.409116-49.95122-49.951219-49.95122H231.885549c-27.543102 0-49.95122 22.408117-49.951219 49.95122V874.146341c0 27.543102 22.408117 49.95122 49.951219 49.95122v99.902439z" fill="#2c2c2c" p-id="5454"></path><path d="M635.407485 1023.000976h-99.902439V825.172168c0-82.629307 67.224351-149.853659 149.853658-149.853659H941.330732v99.902439H685.358704c-27.543102 0-49.95122 22.409116-49.951219 49.95122V1023.000976z" fill="#2c2c2c" p-id="5455"></path><path d="M885.106638 700.091317l57.973385 81.360546L667.348293 1023.879118l-57.973386-81.360546z" fill="#2c2c2c" p-id="5456"></path><path d="M216.788293 923.598049h451.226349v99.902439H216.788293zM417.18759 282.328289H265.843387c-27.58706 0-49.95122-22.36416-49.951219-49.95122s22.36416-49.95122 49.951219-49.951219h151.344203c27.58706 0 49.95122 22.36416 49.95122 49.951219s-22.36416 49.95122-49.95122 49.95122zM764.830096 282.328289H549.052816c-27.58706 0-49.95122-22.36416-49.95122-49.95122s22.36416-49.95122 49.95122-49.951219h215.77728c27.58706 0 49.95122 22.36416 49.951219 49.951219s-22.36416 49.95122-49.951219 49.95122zM764.830096 475.880273H265.843387c-27.58706 0-49.95122-22.36416-49.951219-49.951219s22.36416-49.95122 49.951219-49.95122h498.986709c27.58706 0 49.95122 22.36416 49.951219 49.95122s-22.36416 49.95122-49.951219 49.951219zM648.366829 669.432258H265.843387c-27.58706 0-49.95122-22.36416-49.951219-49.95122s22.36416-49.95122 49.951219-49.951219H648.366829c27.58706 0 49.95122 22.36416 49.95122 49.951219s-22.36416 49.95122-49.95122 49.95122z" fill="#2c2c2c" p-id="5457"></path></svg>