<?xml version="1.0" standalone="no"?><!DOCTYPE svg PUBLIC "-//W3C//DTD SVG 1.1//EN" "http://www.w3.org/Graphics/SVG/1.1/DTD/svg11.dtd"><svg t="1712215518661" class="icon" viewBox="0 0 1024 1024" version="1.1" xmlns="http://www.w3.org/2000/svg" p-id="4362" xmlns:xlink="http://www.w3.org/1999/xlink" width="200" height="200"><path d="M311.640064 741.04832c-0.733184 7.110656 6.156288 12.316672 12.77952 9.437184 7.90528-3.444736 82.116608-35.897344 116.67456-51.01568l-115.412992-85.180416C321.347584 652.730368 312.270848 734.777344 311.640064 741.04832L311.640064 741.04832 311.640064 741.04832zM336.900096 581.623808 469.4016 679.40352l213.2992-289.886208-132.497408-97.779712L336.900096 581.623808 336.900096 581.623808 336.900096 581.623808zM485.715968 631.586816l-14.270464-10.52672 10.518528-14.290944 14.266368 10.530816L485.715968 631.586816 485.715968 631.586816 485.715968 631.586816zM649.445376 409.071616l-147.21024 200.065024-14.262272-10.52672L635.174912 398.5408 649.445376 409.071616 649.445376 409.071616 649.445376 409.071616zM695.365632 329.560064l-91.72992-67.694592c-11.264-8.302592-27.111424-5.89824-35.414016 5.378048l-7.507968 10.203136 132.5056 97.783808 7.512064-10.215424C709.025792 353.742848 706.625536 337.870848 695.365632 329.560064L695.365632 329.560064 695.365632 329.560064zM695.365632 329.560064" fill="#2c2c2c" p-id="4363"></path><path d="M469.368832 750.85824l299.204608 0 0-21.516288-299.204608 0L469.368832 750.85824 469.368832 750.85824 469.368832 750.85824zM548.51584 626.016256l0 21.52448 220.0576 0 0-21.52448L548.51584 626.016256 548.51584 626.016256 548.51584 626.016256zM548.51584 626.016256" fill="#2c2c2c" p-id="4364"></path><path d="M844.967936 166.572032 180.314112 166.572032c-89.239552 0-162.246656 73.027584-162.246656 162.246656l0 378.925056c0 89.214976 73.007104 162.246656 162.246656 162.246656l664.653824 0c89.260032 0 162.267136-73.03168 162.267136-162.246656L1007.235072 328.814592C1007.235072 239.599616 934.227968 166.572032 844.967936 166.572032L844.967936 166.572032zM965.578752 333.451264l0 86.470656 0 42.770432 0 241.205248c0 64.360448-52.65408 116.989952-117.006336 116.989952L176.734208 820.887552c-64.34816 0-116.985856-52.629504-116.985856-116.989952l0-241.205248L59.748352 419.92192 59.748352 333.451264l0-0.782336c0-64.360448 52.6336-116.994048 116.985856-116.994048l671.838208 0c64.352256 0 117.006336 52.6336 117.006336 116.994048L965.578752 333.451264 965.578752 333.451264zM965.578752 333.451264" fill="#2c2c2c" p-id="4365"></path></svg>