<?xml version="1.0" standalone="no"?><!DOCTYPE svg PUBLIC "-//W3C//DTD SVG 1.1//EN" "http://www.w3.org/Graphics/SVG/1.1/DTD/svg11.dtd"><svg t="1712546593296" class="icon" viewBox="0 0 1024 1024" version="1.1" xmlns="http://www.w3.org/2000/svg" p-id="7940" xmlns:xlink="http://www.w3.org/1999/xlink" width="200" height="200"><path d="M512.256 182.272a331.776 331.776 0 1 1-234.752 97.28 329.728 329.728 0 0 1 234.752-97.28m0-102.4a434.176 434.176 0 1 0 434.432 434.432A434.176 434.176 0 0 0 512.256 79.872z" fill="#2c2c2c" p-id="7941"></path><path d="M638.72 638.72a51.456 51.456 0 0 1-72.448 0l-180.992-180.992a51.456 51.456 0 0 1 0-72.448 51.456 51.456 0 0 1 72.448 0l180.992 180.992a51.456 51.456 0 0 1 0 72.448z" fill="#2c2c2c" p-id="7942"></path><path d="M385.28 638.72a51.456 51.456 0 0 1 0-72.448l180.992-180.992a51.456 51.456 0 0 1 72.448 0 51.456 51.456 0 0 1 0 72.448l-180.992 180.992a51.456 51.456 0 0 1-72.448 0z" fill="#2c2c2c" p-id="7943"></path></svg>