<?xml version="1.0" standalone="no"?><!DOCTYPE svg PUBLIC "-//W3C//DTD SVG 1.1//EN" "http://www.w3.org/Graphics/SVG/1.1/DTD/svg11.dtd"><svg t="1712040655399" class="icon" viewBox="0 0 1024 1024" version="1.1" xmlns="http://www.w3.org/2000/svg" p-id="3402" xmlns:xlink="http://www.w3.org/1999/xlink" width="200" height="200"><path d="M848.18514 333.940848a36.825678 36.825678 0 0 1-20.295147-6.081305L510.021164 118.80263 197.823394 327.71475a37.018735 37.018735 0 0 1-41.169468-61.512879l332.613579-222.546791a36.994603 36.994603 0 0 1 41.024675-0.168925l338.357033 222.546791a37.018735 37.018735 0 0 1-20.367544 67.932034z" fill="#2c2c2c" p-id="3403"></path><path d="M435.404521 74.375321a74.423585 74.423585 0 1 0 74.423586-74.399453 74.423585 74.423585 0 0 0-74.423586 74.399453z" fill="#2c2c2c" p-id="3404"></path><path d="M874.19961 273.682841H149.631467a149.6194 149.6194 0 0 0-149.619399 149.6194v451.078359a149.6194 149.6194 0 0 0 149.619399 149.6194h724.616408a149.6194 149.6194 0 0 0 149.6194-149.6194V423.229845a149.6194 149.6194 0 0 0-149.667665-149.547004zM353.54823 470.890863a39.214762 39.214762 0 0 1 39.214762-39.214762h78.091674a39.214762 39.214762 0 1 1 0 78.405392h-78.091674a39.214762 39.214762 0 0 1-39.214762-39.19063z m-237.532863 0a39.214762 39.214762 0 0 1 39.214762-39.214762h81.904555a39.214762 39.214762 0 1 1 0 78.405392H155.230129a39.19063 39.19063 0 0 1-39.238894-39.19063z m712.864044 315.769331a39.214762 39.214762 0 0 1-39.214762 39.166497H155.230129a39.214762 39.214762 0 1 1 0-78.429524h634.43452a39.19063 39.19063 0 0 1 39.19063 39.238895z m0-157.872599a39.214762 39.214762 0 0 1-39.214762 39.214762H155.230129a39.214762 39.214762 0 1 1 0-78.429525h634.43452a39.19063 39.19063 0 0 1 39.19063 39.19063z" fill="#2c2c2c" p-id="3405"></path></svg>