<?xml version="1.0" standalone="no"?><!DOCTYPE svg PUBLIC "-//W3C//DTD SVG 1.1//EN" "http://www.w3.org/Graphics/SVG/1.1/DTD/svg11.dtd"><svg t="1711789076408" class="icon" viewBox="0 0 1024 1024" version="1.1" xmlns="http://www.w3.org/2000/svg" p-id="7511" xmlns:xlink="http://www.w3.org/1999/xlink" width="200" height="200"><path d="M511.435945 302.584307m-302.584307 0a302.584307 302.584307 0 1 0 605.168614 0 302.584307 302.584307 0 1 0-605.168614 0Z" fill="#1A1A1A" p-id="7512"></path><path d="M803.763157 603.459098c-23.933222-18.804674-58.123539-17.095159-80.347245 5.128548-54.704508 54.704508-129.923205 88.894825-213.689483 88.894825s-158.984975-34.190317-213.689482-88.894825c-22.223706-22.223706-56.414023-25.642738-80.347245-5.128548C123.375845 682.096828 54.995211 782.958264 32.771505 921.429048c-8.547579 56.414023 30.771285 102.570952 88.894824 102.570952H902.915077c56.414023 0 97.442404-46.156928 88.894825-102.570952-23.933222-138.470785-92.313856-239.33222-188.046745-317.96995z" fill="#1A1A1A" p-id="7513"></path></svg>