<?xml version="1.0" standalone="no"?><!DOCTYPE svg PUBLIC "-//W3C//DTD SVG 1.1//EN" "http://www.w3.org/Graphics/SVG/1.1/DTD/svg11.dtd"><svg t="1727418526617" class="icon" viewBox="0 0 1024 1024" version="1.1" xmlns="http://www.w3.org/2000/svg" p-id="1487" xmlns:xlink="http://www.w3.org/1999/xlink" width="200" height="200"><path d="M361.5 882.1c-21.2 0-38.4-17.2-38.4-38.4V690c0-21.2 17.2-38.4 38.4-38.4s38.4 17.2 38.4 38.4v153.6c0 21.3-17.2 38.5-38.4 38.5zM822.3 574.8H207.9c-63.5 0-115.2-51.7-115.2-115.2v-38.4c0-63.5 51.7-115.2 115.2-115.2h614.5c63.5 0 115.2 51.7 115.2 115.2v38.4c-0.1 63.6-51.7 115.2-115.3 115.2z m-614.4-192c-21.2 0-38.4 17.2-38.4 38.4v38.4c0 21.2 17.2 38.4 38.4 38.4h614.5c21.2 0 38.4-17.2 38.4-38.4v-38.4c0-21.2-17.2-38.4-38.4-38.4H207.9z" fill="#2c2c2c" p-id="1488"></path><path d="M745.5 901.3H284.7c-63.5 0-115.2-51.7-115.2-115.2V536.4c0-21.2 17.2-38.4 38.4-38.4h614.5c21.2 0 38.4 17.2 38.4 38.4V786c-0.1 63.6-51.7 115.3-115.3 115.3zM246.3 574.8V786c0 21.2 17.2 38.4 38.4 38.4h460.8c21.2 0 38.4-17.2 38.4-38.4V574.8H246.3zM611.1 382.8h-192c-21.2 0-38.4-17.2-38.4-38.4V229.2c0-63.5 51.7-115.2 115.2-115.2h38.4c63.5 0 115.2 51.7 115.2 115.2v115.2c0 21.2-17.2 38.4-38.4 38.4zM457.5 306h115.2v-76.8c0-21.2-17.2-38.4-38.4-38.4h-38.4c-21.2 0-38.4 17.2-38.4 38.4V306z" fill="#2c2c2c" p-id="1489"></path><path d="M515.1 882.1c-21.2 0-38.4-17.2-38.4-38.4V690c0-21.2 17.2-38.4 38.4-38.4s38.4 17.2 38.4 38.4v153.6c0 21.3-17.2 38.5-38.4 38.5zM668.7 882.1c-21.2 0-38.4-17.2-38.4-38.4V690c0-21.2 17.2-38.4 38.4-38.4s38.4 17.2 38.4 38.4v153.6c0 21.3-17.2 38.5-38.4 38.5z" fill="#2c2c2c" p-id="1490"></path></svg>