<?xml version="1.0" standalone="no"?><!DOCTYPE svg PUBLIC "-//W3C//DTD SVG 1.1//EN" "http://www.w3.org/Graphics/SVG/1.1/DTD/svg11.dtd"><svg t="1712119294451" class="icon" viewBox="0 0 1024 1024" version="1.1" xmlns="http://www.w3.org/2000/svg" p-id="7291" xmlns:xlink="http://www.w3.org/1999/xlink" width="200" height="200"><path d="M405.97 530.4m-40.81 0a40.81 40.81 0 1 0 81.62 0 40.81 40.81 0 1 0-81.62 0Z" p-id="7292" fill="#2c2c2c"></path><path d="M618.04 530.4m-40.81 0a40.81 40.81 0 1 0 81.62 0 40.81 40.81 0 1 0-81.62 0Z" p-id="7293" fill="#2c2c2c"></path><path d="M512.01 959.33c-70.48 0-140.41-16.79-202.89-48.62H93.23V669.25c-18.96-50.4-28.56-103.26-28.56-157.26 0-246.66 200.68-447.32 447.34-447.32s447.32 200.66 447.32 447.32-200.66 447.34-447.32 447.34zM166.85 837.09h160.56l8.16 4.39c53.89 28.94 114.89 44.23 176.43 44.23 206.06 0 373.7-167.65 373.7-373.72 0-206.06-167.65-373.7-373.7-373.7-206.07 0-373.72 167.65-373.72 373.7 0 47.09 8.75 93.16 25.99 136.91l2.57 6.51v181.68z" p-id="7294" fill="#2c2c2c"></path></svg>