<?xml version="1.0" standalone="no"?><!DOCTYPE svg PUBLIC "-//W3C//DTD SVG 1.1//EN" "http://www.w3.org/Graphics/SVG/1.1/DTD/svg11.dtd"><svg t="1737958889901" class="icon" viewBox="0 0 1040 1024" version="1.1" xmlns="http://www.w3.org/2000/svg" p-id="4194" xmlns:xlink="http://www.w3.org/1999/xlink" width="203.125" height="200"><path d="M520 288.192l-9.552-9.552-4-3.888c-73.28-69.088-188.432-67.488-259.808 3.888-72.848 72.848-72.848 190.96 0 263.808l262.048 262.048a16 16 0 0 0 22.624 0l262.048-262.048c72.848-72.848 72.848-190.96 0-263.808-72.848-72.848-190.96-72.848-263.808 0l-9.552 9.552z m-46.736 21.232l3.488 3.408 43.248 43.232 43.488-43.488a138.544 138.544 0 0 1 195.936 0l3.184 3.296a138.544 138.544 0 0 1-3.2 192.64L520 747.92 280.576 508.512a138.544 138.544 0 0 1 189.568-201.92l3.12 2.832z" fill="#515151" p-id="4195"></path></svg>