<?xml version="1.0" standalone="no"?><!DOCTYPE svg PUBLIC "-//W3C//DTD SVG 1.1//EN" "http://www.w3.org/Graphics/SVG/1.1/DTD/svg11.dtd"><svg t="1712544274146" class="icon" viewBox="0 0 1024 1024" version="1.1" xmlns="http://www.w3.org/2000/svg" p-id="6879" xmlns:xlink="http://www.w3.org/1999/xlink" width="200" height="200"><path d="M853.333333 195.047619a73.142857 73.142857 0 0 1 73.142857 73.142857v487.619048a73.142857 73.142857 0 0 1-73.142857 73.142857H170.666667a73.142857 73.142857 0 0 1-73.142857-73.142857V268.190476a73.142857 73.142857 0 0 1 73.142857-73.142857h682.666666z m0 73.142857H170.666667v487.619048h682.666666V268.190476z m-48.761904 341.333334v73.142857H219.428571v-73.142857h585.142858zM463.238095 316.952381v219.428571H219.428571v-219.428571h243.809524z m341.333334 146.285714v73.142857H512v-73.142857h292.571429z m-414.476191-73.142857h-97.523809v73.142857h97.523809v-73.142857z" p-id="6880" fill="#2c2c2c"></path></svg>