<?xml version="1.0" standalone="no"?><!DOCTYPE svg PUBLIC "-//W3C//DTD SVG 1.1//EN" "http://www.w3.org/Graphics/SVG/1.1/DTD/svg11.dtd"><svg t="1712040255118" class="icon" viewBox="0 0 1024 1024" version="1.1" xmlns="http://www.w3.org/2000/svg" p-id="5393" xmlns:xlink="http://www.w3.org/1999/xlink" width="200" height="200"><path d="M777.4208 217.8048H246.5792c-33.8944 0-61.44 27.5456-61.44 61.44v465.408c0 33.8944 27.5456 61.44 61.44 61.44h530.944c33.8944 0 61.44-27.5456 61.44-61.44V279.2448c-0.1024-33.792-27.648-61.44-61.5424-61.44z m-101.4784 116.8384c25.8048 0 46.6944 20.8896 46.6944 46.6944S701.7472 428.032 675.9424 428.032c-25.8048 0-46.6944-20.8896-46.6944-46.6944s20.8896-46.6944 46.6944-46.6944z m121.9584 410.112c0 11.264-9.216 20.48-20.48 20.48H246.5792c-11.264 0-20.48-9.216-20.48-20.48V629.76l169.5744-169.8816c4.096-3.9936 9.5232-6.144 15.2576-5.8368 5.7344 0.3072 11.0592 2.8672 14.7456 7.2704l112.7424 134.0416c20.3776 24.2688 55.5008 29.0816 81.6128 11.264l38.0928-25.9072c7.8848-5.4272 18.7392-4.5056 25.6 2.048L791.8592 686.08l6.0416 5.7344v52.9408z" p-id="5394" fill="#2c2c2c"></path></svg>